Coordinates
version=1
nRows=23
nColumns=20
inDegrees=yes

Units are S.I. units (second, meters, Newtons, ...)
Angles are in degrees.

endheader
time	Th_rotX	Th_rotY	Th_rotZ	Th_transX	Th_transY	Th_transZ	Clav_rotZ_right	Clav_rotY_right	Clav_rotX_right	Scap_rotZ_right	Scap_rotY_right	Scap_rotX_right	Hum_rotZ_right	Hum_rotY_right	Hum_rotZZ_right	Elb_flex_right	Elb_ProSup_right	wrist_dev_r	wrist_flex_r
      1.93666667	      0.57972147	     -1.56718236	      2.18156168	      0.49035120	      1.41748922	     -0.42766752	     13.60962640	     19.75893826	     20.16960339	    -19.21286916	     -4.66364209	     23.30356405	      2.62398928	    -36.46775066	    -68.74353070	     16.01175718	     50.50865525	     62.35004437	    -13.23820916
      1.94000000	      0.57927094	     -1.56752652	      2.18132447	      0.49034126	      1.41749923	     -0.42766331	     13.60990374	     19.75932378	     20.16966127	    -19.21284803	     -4.66395432	     23.30332083	      2.62400360	    -36.46817355	    -68.74349812	     16.01196827	     50.50845904	     62.35010939	    -13.23820875
      1.94333333	      0.57887641	     -1.56785185	      2.18110095	      0.49034005	      1.41751171	     -0.42766447	     13.61016843	     19.75967828	     20.16970953	    -19.21279518	     -4.66430420	     23.30312517	      2.62404022	    -36.46855159	    -68.74345418	     16.01217564	     50.50825482	     62.35017291	    -13.23821034
      1.94666667	      0.57850549	     -1.56811956	      2.18093093	      0.49033886	      1.41752474	     -0.42766493	     13.61039380	     19.75997635	     20.16980915	    -19.21273722	     -4.66464040	     23.30301919	      2.62407807	    -36.46884476	    -68.74339731	     16.01241247	     50.50806454	     62.35023713	    -13.23820811
      1.95000000	      0.57802771	     -1.56840886	      2.18066505	      0.49033094	      1.41754068	     -0.42765985	     13.61062533	     19.76040275	     20.16984793	    -19.21275555	     -4.66497314	     23.30278579	      2.62411772	    -36.46925569	    -68.74334216	     16.01262626	     50.50786545	     62.35031009	    -13.23821303
      1.95333333	      0.57755339	     -1.56880184	      2.18028280	      0.49032249	      1.41755326	     -0.42765548	     13.61093523	     19.76089963	     20.16974262	    -19.21279615	     -4.66539191	     23.30240335	      2.62421400	    -36.46979945	    -68.74329239	     16.01278055	     50.50765998	     62.35037670	    -13.23821733
      1.95666667	      0.57681561	     -1.56931682	      2.17970693	      0.49030470	      1.41756358	     -0.42763668	     13.61130682	     19.76172413	     20.16950978	    -19.21296223	     -4.66573866	     23.30161119	      2.62425971	    -36.47070255	    -68.74326990	     16.01288638	     50.50745895	     62.35044857	    -13.23822364
      1.96000000	      0.57635611	     -1.56962623	      2.17937969	      0.49030600	      1.41757107	     -0.42763668	     13.61155028	     19.76220035	     20.16947359	    -19.21298951	     -4.66609590	     23.30125851	      2.62431918	    -36.47121739	    -68.74320451	     16.01305512	     50.50726413	     62.35052396	    -13.23822763
      1.96333333	      0.57601037	     -1.56978811	      2.17921805	      0.49031605	      1.41758644	     -0.42764791	     13.61169631	     19.76248234	     20.16958722	    -19.21293074	     -4.66645984	     23.30124293	      2.62437748	    -36.47143262	    -68.74313670	     16.01324270	     50.50706484	     62.35059849	    -13.23823251
      1.96666667	      0.57554727	     -1.57012519	      2.17883167	      0.49031272	      1.41759650	     -0.42764546	     13.61196612	     19.76298191	     20.16948821	    -19.21298021	     -4.66687094	     23.30086148	      2.62446469	    -36.47197316	    -68.74308437	     16.01337130	     50.50686426	     62.35066921	    -13.23823725
      1.97000000	      0.57497704	     -1.57057444	      2.17830263	      0.49030198	      1.41760741	     -0.42763926	     13.61230916	     19.76365865	     20.16924920	    -19.21310977	     -4.66731743	     23.30025390	      2.62457922	    -36.47271951	    -68.74303873	     16.01346389	     50.50666163	     62.35074450	    -13.23824497
      1.97333333	      0.57461531	     -1.57069213	      2.17815480	      0.49030420	      1.41761477	     -0.42764026	     13.61240490	     19.76398565	     20.16939056	    -19.21314605	     -4.66759558	     23.30015234	      2.62460922	    -36.47300083	    -68.74294965	     16.01369168	     50.50648041	     62.35082907	    -13.23824770
      1.97666667	      0.57419105	     -1.57102979	      2.17775694	      0.49029483	      1.41762317	     -0.42763537	     13.61266620	     19.76447231	     20.16925994	    -19.21326263	     -4.66802591	     23.29975761	      2.62473710	    -36.47354673	    -68.74289077	     16.01382951	     50.50630698	     62.35091421	    -13.23825121
      1.98000000	      0.57354605	     -1.57135922	      2.17731046	      0.49029343	      1.41763487	     -0.42763158	     13.61292395	     19.76518200	     20.16915379	    -19.21336092	     -4.66835077	     23.29919862	      2.62475922	    -36.47424959	    -68.74283550	     16.01396844	     50.50609997	     62.35099588	    -13.23826200
      1.98333333	      0.57300485	     -1.57181587	      2.17671541	      0.49028168	      1.41763393	     -0.42762280	     13.61328130	     19.76587502	     20.16884960	    -19.21353922	     -4.66880637	     23.29847383	      2.62489933	    -36.47509823	    -68.74277633	     16.01403954	     50.50589188	     62.35106866	    -13.23827027
      1.98666667	      0.57244738	     -1.57206976	      2.17631129	      0.49027875	      1.41763846	     -0.42761787	     13.61346391	     19.76650421	     20.16879415	    -19.21369140	     -4.66909224	     23.29796883	      2.62493054	    -36.47575399	    -68.74268882	     16.01419353	     50.50568338	     62.35114569	    -13.23827887
      1.99000000	      0.57185366	     -1.57244359	      2.17574388	      0.49026888	      1.41764450	     -0.42761125	     13.61374617	     19.76724205	     20.16856790	    -19.21390134	     -4.66947591	     23.29728575	      2.62501751	    -36.47657243	    -68.74261929	     16.01429647	     50.50546554	     62.35121715	    -13.23828883
      1.99333333	      0.57124592	     -1.57279229	      2.17523496	      0.49026759	      1.41764795	     -0.42761019	     13.61401993	     19.76796232	     20.16840921	    -19.21403871	     -4.66981199	     23.29664190	      2.62505638	    -36.47735035	    -68.74256289	     16.01441656	     50.50525042	     62.35128473	    -13.23829676
      1.99666667	      0.57075317	     -1.57318055	      2.17471217	      0.49026245	      1.41764843	     -0.42761217	     13.61432613	     19.76860217	     20.16818490	    -19.21419200	     -4.67023634	     23.29603236	      2.62515753	    -36.47810805	    -68.74249861	     16.01452268	     50.50503745	     62.35135414	    -13.23830478
      2.00000000	      0.57033678	     -1.57347477	      2.17429709	      0.49026280	      1.41764818	     -0.42761568	     13.61456562	     19.76912341	     20.16806463	    -19.21430585	     -4.67062172	     23.29557369	      2.62523485	    -36.47871452	    -68.74242070	     16.01467737	     50.50483238	     62.35142705	    -13.23831132
      2.00333333	      0.56979182	     -1.57379019	      2.17381643	      0.49025947	      1.41764838	     -0.42761502	     13.61481666	     19.76978316	     20.16793743	    -19.21444960	     -4.67094714	     23.29498366	      2.62526585	    -36.47944875	    -68.74234893	     16.01483389	     50.50461467	     62.35149028	    -13.23831702
      2.00666667	      0.56811610	     -1.57492018	      2.17228587	      0.49023779	      1.41762543	     -0.42758922	     13.61571091	     19.77192589	     20.16731401	    -19.21491002	     -4.67169278	     23.29266930	      2.62521660	    -36.48201357	    -68.74235040	     16.01507974	     50.50412557	     62.35164423	    -13.23833061
      2.01000000	      0.56759729	     -1.57523146	      2.17185260	      0.49024287	      1.41762524	     -0.42759763	     13.61597834	     19.77256536	     20.16721936	    -19.21498261	     -4.67200266	     23.29210571	      2.62519965	    -36.48271504	    -68.74231646	     16.01525540	     50.50393831	     62.35171058	    -13.23833445
